# Blender 4.2.2 LTS
# www.blender.org
mtllib Table.mtl
o Table
v 0.305290 0.782000 -0.696219
v 0.305290 0.807000 -0.696219
v -0.305294 0.782000 -0.696218
v -0.305294 0.807000 -0.696218
v -0.305292 0.782000 0.696219
v -0.305292 0.807000 0.696219
v 0.305293 0.782000 0.696219
v 0.305293 0.807000 0.696219
v 0.255292 0.782000 0.696218
v 0.255292 -0.000000 0.696218
v 0.255293 0.782000 0.641218
v 0.255293 -0.000000 0.641218
v 0.305292 -0.000000 0.641219
v 0.305293 -0.000000 0.696219
v 0.305293 0.782000 0.696219
v 0.305292 0.782000 0.641219
v -0.305291 0.782000 0.696220
v -0.305291 -0.000000 0.696220
v -0.305290 0.782000 0.641219
v -0.305290 -0.000000 0.641219
v -0.255290 -0.000000 0.641220
v -0.255291 -0.000000 0.696219
v -0.255291 0.782000 0.696219
v -0.255290 0.782000 0.641220
v -0.305293 0.782000 -0.641219
v -0.305293 -0.000000 -0.641219
v -0.305293 0.782000 -0.696218
v -0.305293 -0.000000 -0.696218
v -0.255292 -0.000000 -0.696218
v -0.255292 -0.000000 -0.641219
v -0.255292 0.782000 -0.641219
v -0.255292 0.782000 -0.696218
v 0.255291 0.782000 -0.641219
v 0.255291 -0.000000 -0.641219
v 0.255292 0.782000 -0.696219
v 0.255292 -0.000000 -0.696219
v 0.305291 -0.000000 -0.696219
v 0.305292 -0.000000 -0.641219
v 0.305292 0.782000 -0.641219
v 0.305291 0.782000 -0.696219
vn -0.0000 -0.0000 -1.0000
vn -1.0000 -0.0000 -0.0000
vn -0.0000 -0.0000 1.0000
vn 1.0000 -0.0000 -0.0000
vn -0.0000 1.0000 -0.0000
vn -0.0000 -1.0000 -0.0000
vt -0.000000 -2.500000
vt 61.058407 -2.500000
vt -0.000000 0.000000
vt 61.058407 0.000000
vt 139.243790 -2.500000
vt 139.243790 0.000000
vt 299.233307 -730.444153
vt 438.216583 -721.930359
vt 295.500000 -669.500000
vt 434.483276 -660.986206
vt -299.233307 -730.444153
vt -295.500000 -669.500000
vt -438.216583 -721.930359
vt -434.483276 -660.986206
vt 5.500000 78.199997
vt 0.000000 78.199997
vt 5.500000 0.000000
vt -429.299286 -666.313110
vt -428.993561 -661.322510
vt -434.788971 -665.976868
vt 5.000000 78.199997
vt 5.000000 0.000000
vt 429.299286 -666.313110
vt 434.788971 -665.976868
vt 428.993561 -661.322510
vt -432.726868 -722.266663
vt -432.421143 -717.276001
vt -437.910858 -716.939697
vt 432.726868 -722.266663
vt 432.421143 -717.276001
vt 437.910858 -716.939697
vt -298.927582 -725.453491
vt -304.723022 -730.107849
vt -304.417297 -725.117249
vt 304.723022 -730.107849
vt 298.927582 -725.453491
vt 304.417297 -725.117249
vt -295.805725 -674.490662
vt -301.295441 -674.154358
vt -300.989716 -669.163696
vt 295.805725 -674.490662
vt 301.295441 -674.154358
vt 300.989716 -669.163696
s 1
usemtl Material__29
f 1/1/1 3/2/1 2/3/1
f 2/3/1 3/2/1 4/4/1
f 3/1/2 5/5/2 4/3/2
f 4/3/2 5/5/2 6/6/2
f 5/1/3 7/2/3 6/3/3
f 6/3/3 7/2/3 8/4/3
f 7/1/4 1/5/4 8/3/4
f 8/3/4 1/5/4 2/6/4
f 4/7/5 6/8/5 2/9/5
f 2/9/5 6/8/5 8/10/5
f 3/11/6 1/12/6 5/13/6
f 5/13/6 1/12/6 7/14/6
f 9/15/2 11/16/2 10/17/2
f 10/17/2 11/16/2 12/3/2
f 12/18/6 13/19/6 10/20/6
f 10/20/6 13/19/6 14/14/6
f 15/21/3 9/16/3 14/22/3
f 14/22/3 9/16/3 10/3/3
f 11/21/1 16/16/1 12/22/1
f 12/22/1 16/16/1 13/3/1
f 16/15/4 15/16/4 13/17/4
f 13/17/4 15/16/4 14/3/4
f 11/23/5 9/24/5 16/25/5
f 16/25/5 9/24/5 15/10/5
f 17/15/2 19/16/2 18/17/2
f 18/17/2 19/16/2 20/3/2
f 20/26/6 21/27/6 18/13/6
f 18/13/6 21/27/6 22/28/6
f 23/21/3 17/16/3 22/22/3
f 22/22/3 17/16/3 18/3/3
f 19/21/1 24/16/1 20/22/1
f 20/22/1 24/16/1 21/3/1
f 24/15/4 23/16/4 21/17/4
f 21/17/4 23/16/4 22/3/4
f 19/29/5 17/8/5 24/30/5
f 24/30/5 17/8/5 23/31/5
f 25/15/2 27/16/2 26/17/2
f 26/17/2 27/16/2 28/3/2
f 28/11/6 29/32/6 26/33/6
f 26/33/6 29/32/6 30/34/6
f 31/21/3 25/16/3 30/22/3
f 30/22/3 25/16/3 26/3/3
f 27/21/1 32/16/1 28/22/1
f 28/22/1 32/16/1 29/3/1
f 32/15/4 31/16/4 29/17/4
f 29/17/4 31/16/4 30/3/4
f 27/7/5 25/35/5 32/36/5
f 32/36/5 25/35/5 31/37/5
f 33/15/2 35/16/2 34/17/2
f 34/17/2 35/16/2 36/3/2
f 36/38/6 37/12/6 34/39/6
f 34/39/6 37/12/6 38/40/6
f 39/21/3 33/16/3 38/22/3
f 38/22/3 33/16/3 34/3/3
f 35/21/1 40/16/1 36/22/1
f 36/22/1 40/16/1 37/3/1
f 40/15/4 39/16/4 37/17/4
f 37/17/4 39/16/4 38/3/4
f 35/41/5 33/42/5 40/9/5
f 40/9/5 33/42/5 39/43/5
